<?xml version="1.0" encoding="utf-8"?>
<!-- Generator: Adobe Illustrator 22.1.0, SVG Export Plug-In . SVG Version: 6.00 Build 0)  -->
<svg version="1.1" id="Layer_1" xmlns="http://www.w3.org/2000/svg" xmlns:xlink="http://www.w3.org/1999/xlink" x="0px" y="0px"
	 viewBox="0 0 920.3 352.8" style="enable-background:new 0 0 920.3 352.8;" xml:space="preserve">
<style type="text/css">
	.st0{fill:#FFFFFF;}
</style>
<g id="Layer_1_1_">
	<g>
		<path class="st0" d="M59.6,82.5l1.9-0.8c1.4-0.1,2.9-1.1,4.3-3c0.4,0,0.9-0.3,1.6-0.8l2.4-0.2c1.4-1.7,3-2.6,4.8-2.9
			c1.8-0.3,4-0.9,6.5-1.7s4.5-1.4,5.8-1.6c1.4-0.2,2.4-0.5,3.1-1c0.7-0.4,1.1-0.6,1.3-0.7l3.9,0.3c2.7-0.2,4.7,0.1,5.8,1.1
			s3.1,2.3,5.9,4.1c2.9,1.7,4.6,5.9,5.1,12.5v0.3l-0.3,3.6l0.5,2.4c0.1,0.6-0.3,1.4-1,2.4l-0.5,1.9c0.2,2-0.3,4-1.4,6
			c-1.1,2-1.7,3.8-1.8,5.3l-1.6,2.6l-1.9,6.1l-3.4,5.4l-2.3,5.9l-2.9,3.9l-0.2,0.9c-0.5,2-1.5,3-2.8,3.2l0.2,2.7
			c0.1,1-0.5,2.7-1.6,5.1c-1.2,2.4-1.8,4.3-1.9,5.6l-1.3,2.9c1.1,0.7,2.3,1,3.8,0.9c0.3,0,1.5-0.6,3.7-1.8c2.1-1.2,3.9-1.9,5.2-2
			l14.1-4.1c0.3,0,0.9,0.3,1.9,0.9c0.5-1.2,0.9-1.8,1.1-1.8l3.7-1.8c1.5,0.3,2.3,0.4,2.5,0.4c3.3-0.3,6.9-1.4,10.7-3.4
			c6.2-2.3,12.4-3.7,18.5-4.2l12.2-3.8c0.6-0.9,1.2-2.3,1.5-4.3c0.4-2,1.1-3.4,2.1-4.1c1-0.7,1.7-1.6,2-2.7c0.3-1.1,0.9-2.4,1.8-3.9
			l1.2-4.2l3.2-7.2l0.6-3.4c0.3-1.4,1.6-3.6,3.9-6.6l-0.1-0.9c-0.2-2.1,0.6-3.7,2.4-4.6l0.3-0.6l-0.4-4.1c-0.1-1.3,1-2.3,3.3-3
			l1-2.1l-0.7-4.8c-0.1-1.1,0.2-2.1,1-3c0.7-0.9,1.1-1.7,1.2-2.6c0-0.8,0.4-2.2,1.2-4.2l0.3-3.4c-0.1-0.6,0.1-1.2,0.3-1.8
			c0.3-0.6,0.3-1.9,0.1-3.9c-0.6-6.9,2.3-10.6,8.8-11.2c2-0.2,4.3,0.9,7,3.3c2.7,2.4,4.2,4.5,4.3,6.5c0.5,6,0.4,10.2-0.5,12.6
			c-0.2,0.4-0.5,1.7-1,3.7s-2,5.8-4.6,11.2l-1.4,2.9l-2.1,0.2l-0.3,0.3l1,4.1l-1.4,1.7l0.2,2c-0.4,0.4-0.7,1.1-0.9,2.1
			c-0.2,0.9-0.9,2.1-1.9,3.6c-1.1,1.5-1.6,2.4-1.5,2.8l0.2,1.8l-0.5,1.3c-1.6,4.1-2.4,6.6-2.4,7.5s-0.5,2-1.4,3.3
			c0.1,1.6-0.8,3.7-2.8,6.2c0.2,0.2,0.3,0.4,0.4,0.6l-0.8,4.5c0.4,0.2,4.6-0.1,12.7-0.8l2.9-0.6l6.2,0.7c0.7-0.1,1.5,0,2.3,0.1
			l0.8,1.8c3.2-0.1,4.8,1,5,3.1c0.3,3.3-0.6,6.2-2.8,9c-2.1,2.7-4.7,4.2-7.7,4.5c-0.8,0.1-1.8-0.2-3-0.9c-1.2-0.7-2.1-1-2.8-0.9
			l-3.9,0.9l-3.9-0.9l-2.4,0.5l-2.3-0.1l-2.4,0.5l-1.9-0.1c-1.2,0.1-2.4,0.7-3.7,1.8l-2.7,0.2c-0.2,0-1.5,3.1-3.8,9.3
			c-2.3,6.2-4,10.8-4.9,13.8c-0.2,0.4-0.8,1-2,1.7c-0.5,3.6-1.9,5.8-4.2,6.6l0.5,2.1c-0.5,1.4-0.7,2.7-0.7,3.9c0,1.2-0.8,2.5-2.3,4
			c-1.6,1.4-2.4,3.3-2.5,5.8s-0.7,5.3-1.7,8.4c-1.1,3.2-1.8,5-2.2,5.6s-1.2,1.9-2.3,3.9s-2.2,3.5-3.2,4.5s-1.5,1.7-1.5,2.1l1.1,2.1
			c-0.2,3.6-1.1,5.5-2.6,5.6l0.2,1.8c0.1,1.1-1,2.3-3.2,3.5c0.7,1.2,1.1,2,1.1,2.4c0.1,1.7-0.1,3-0.9,3.9c-1.4,0.3-2.1,0.8-2,1.4
			l1.1,1.7c0.2,0.2,0.4,0.6,0.4,1.2c0,0.5-0.2,3.1-0.9,7.7c2.1,1.1,3.3,2.5,3.4,4l-0.1,2c1.6,1.3,2.5,2,2.5,2.2l-0.8,3.6
			c-0.2,1.3-1,2.5-2.5,3.5s-3.6,1.6-6.5,1.9c-2.5,0.2-4.3,0-5.3-0.6s-2.2-1.2-3.6-1.8c-1.4-0.6-2.3-1.3-2.6-2
			c-0.3-0.7-1.2-2-2.8-3.8s-2.5-4.2-2.8-7.2l-0.2-2l-0.7-4.2l-0.1-1.4l0.4-6.6l-1.1-5.4c0-0.4,0.1-1,0.5-1.8
			c0.3-0.8,0.6-1.5,0.7-2.1c-1.4-4.1-2.1-6.5-2.2-7.3l-5.4-14.9c-0.1-0.5,0.4-1.6,1.5-3.4c-3.3-0.3-5.2-1-5.8-2
			c-0.5-1-1-1.7-1.5-1.9s-0.9-0.8-1.4-1.6l-19.5-7.4c-0.1-0.1-0.4-0.5-1-1.3c-0.5-0.8-1.5-1.2-3-1.3c-1.5-0.1-2.4-0.3-2.9-0.7
			l-1.6-1.1h-6.9l-3,2.1c0.1,0.8-0.5,2.1-1.6,3.8c-1.1,1.7-2.2,4.5-3.3,8.3c-0.7,2.5-1.7,3.8-3,3.9l-0.5,1.4l0.3,3.7
			c0.1,1-0.4,1.9-1.4,2.6c-1,0.8-1.9,1.5-2.6,2.1c0.2,0.2,0.5,0.8,0.8,1.8l0.1,0.6l-1,2.4c-0.2,0.2-0.3,1.2-0.4,2.8
			c-0.1,1.6-1.3,3.5-3.6,5.7l-1.9,2.6l0.3,3.2l-1.5,5.8c-0.9,4.5-2.1,7.9-3.4,10.3c-1.2,0.3-1.8,0.9-1.7,1.7l0.8,1.9
			c0.2,0.2,0.3,0.5,0.4,0.9c0.2,1.8-0.6,2.9-2.3,3.1c-1.7,0.2-2.6,0.8-2.7,1.6c1.2,2.9,1.8,4.3,1.8,4.4c0.1,0.9-0.7,1.8-2.4,2.7
			h-0.3l1.4,5.7c-2.1,2.4-3.2,4.4-3,5.9c0.3,0.2,0.6,0.9,1,2.2l0.1,1.2c0.3,4-1.2,6.1-4.5,6.4c-1.3,0.1-4.3-2-8.9-6.4
			s-7.2-9.2-7.6-14.2l0.4-7.4c0.3-5.3,0.7-8.6,1.5-9.8c0.7-1.2,1.3-2.7,1.8-4.5s1-3,1.5-3.7c0.5-0.6,0.9-1.5,1.4-2.8l1.3-2.6
			l0.4-2.6l1-2.8c2-4,2.9-6,2.7-6.2c-0.1-1,0.5-2.2,1.9-3.7c1.4-1.4,2-3.2,1.8-5.2c-0.2-1.8,1-4.2,3.4-7l0.8-1.8
			c3.9-9.9,6.6-15.6,8.4-17c-1-2.3-1.8-3.4-2.4-3.3c-0.5,0-1.2,0.2-1.9,0.6c-0.8,0.3-1.5,0.5-2.3,0.6c-0.7,0.1-1.6,0.3-2.6,0.7
			c-1,0.4-2.7,0.7-4.9,0.9c-0.8,0.1-2,0.4-3.5,0.9h-0.3c-0.4,0-1.2-0.3-2.5-0.9c-1.2-0.7-1.9-1.1-1.9-1.3c-0.2-2.2,1.4-4.8,4.8-7.6
			c3.4-2.8,7.6-5.2,12.5-7.1c0.9-0.1,2-0.8,3.3-2.3c1.3-1.4,3.5-2.3,6.7-2.6l2-1.4l1.6,0.2c2.1-3.1,3.7-6,4.9-8.7l-0.2-1.8
			c0-0.4,0.9-2,2.9-4.8c2-2.8,3-4.4,3.2-4.8l-0.2-2.6c1.7-2.1,2.8-4.3,3.4-6.7c0.6-2.4,2.2-5.1,4.8-8.2l1.8-4.6
			c2-4.6,3.9-8.5,5.8-11.8c1.9-3.3,3.2-6.2,3.8-8.8l2.2-3.3l1.3-4.6c1.6-4.5,2.7-7.3,3.6-8.4c-0.5-3.1-1.2-4.6-2.2-4.6l-11.4,3.3
			l-2.8-0.1c-2.2,1.4-4.4,2.4-6.4,2.9c-2.1,0.5-4.3,2-6.7,4.6l-3.2-0.2c-0.7,0.1-1.6,0.5-2.6,1.4s-3.8,2.3-8.3,4.2
			c-0.3,1.5-0.6,2.4-1,2.7l-3.3,0.3l-4.7,4.7c-2.8,2-4.8,3.6-6,5c-1.2,1.3-2.3,2-3.2,2.1c-1.7,0.1-4.9,5-9.6,14.6l-1.9,1.5l-1.3,2.6
			c-0.7,0.3-1.7,0.6-3,0.9c-1.7,2.3-3.2,3.5-4.4,3.6c-0.9,0.1-2.9-0.5-5.9-1.9c-3-1.3-4.7-4.1-5.1-8.2c-0.4-4.6,5.8-10.8,18.6-18.6
			l3.4-2.7c1-0.3,2.5-0.6,4.4-1c2.8-2.9,5.6-5.1,8.5-6.6c2.8-1.5,4.9-2.9,6.1-4.1c1.2-1.2,3.4-2.4,6.4-3.5c3.1-1.2,5-2.5,5.9-4
			s1.4-2.2,1.7-2.2h3.2L59.6,82.5z M43.9,180c0.8,0.1,2,0.1,3.4,0c0.8-0.1,1.2-0.5,1.1-1.2c-0.1-0.6-0.4-0.9-1-0.8
			C45.8,178.2,44.6,178.9,43.9,180z M99.8,185.2l2.3,1.6c0.4-0.2,0.8-0.4,1.3-0.4c1.6-0.1,4.7,1,9.2,3.4s7.1,4.2,7.8,5.3
			c0.7,1.1,1.7,2.7,3.1,4.6c1.3,2,2.6,4.5,3.8,7.6c1.2,3.1,2.2,5,3.1,5.7c0.6-1.4,1.1-3,1.6-4.9l4.5-13.6c0-0.2,0.4-1,1.3-2.3l1-2.4
			l1.5-0.4c-0.2-0.4-0.4-1-0.5-1.8c-0.1-1.2,1-3.2,3.3-6l1.1-4.9l3.4-5.2c0.3-1.9,0.9-3.9,1.9-6s1.7-3.2,1.9-3.2l1.2-0.7
			c0.4-3.8,1.1-6.4,2.3-7.7l0.2-0.9c-0.4,0.2-0.7,0.4-0.9,0.4c-0.2-0.2-0.8-0.3-1.9-0.5l-0.8,0.1c-1,0.1-2.3,0.5-3.9,1.3l-1.5,0.1
			c-0.2,0-0.8-0.1-1.7-0.5l-0.6,0.1l-4.1,2.2h-0.5l-1.6-1.1c-1.2,0.3-2.4,0.5-3.6,0.6c-0.4,0-1.4,0.4-2.9,1.2
			c-1.5,0.7-3,1.2-4.4,1.3l-7.2,1.5h-3.7l-3.5,0.3l-3.2-1c-1.7,2.5-3.8,3.9-6.2,4.1l-1.2,0.4h-0.3l-3.3-0.6c-0.6,0.1-1-0.3-1.3-1
			s-0.6-1.1-1-1.1c-1.1,3.1-2.8,4.8-5.1,5.3s-4.3,1.3-5.8,2.5c-2.5,0.9-4.1,1.4-4.9,1.5c-0.2,0-0.6-0.1-1.3-0.4
			c-3.8,7.2-5.7,10.9-5.6,11.2c0.1,0.6,1.6,0.8,4.8,0.5l2.2,0.7c0.6,0.5,1.8,0.8,3.5,0.9c1.7,0.2,3.5,0.5,5.4,0.9l2.2-0.8
			c0.2,0,1.2,0.2,3,0.5L99.8,185.2z"/>
		<path class="st0" d="M179.7,204.1l2.3-2.3l0.9-0.1c0.7-0.1,1.7-0.9,3-2.6l1.5-0.7c1.8-3.2,3.4-5.1,4.9-5.8l2.3-2
			c0.4-0.4,0.9-0.8,1.7-1.2c0.7-0.4,1.9-1.5,3.4-3.3s2.8-2.8,3.8-2.9s1.8-0.1,2.5,0.1c0.5-1.3,1.6-2.6,3.3-3.9s3.1-2.8,4.1-4.6
			l1.9-1.1c1.6-1,2.9-2.1,4.1-3.5s2.8-2.2,4.8-2.3c2.9-0.3,6.1,1,9.6,3.7s5.3,5.4,5.5,8.2l-1.6,12.1c-1,8.9-2.5,13.6-4.6,14.2
			l-0.3,3.2c-1.3,1.1-2,2-1.9,2.6l1.2,3.6c0,0.5-0.5,1.3-1.5,2.4c-0.2,0-0.3,0.3-0.2,0.9l0.5,6.2c0.1,1.1-0.5,2.1-1.9,2.9
			c0.2,0.2,0.5,0.4,1,0.5c0.6-0.7,1.9-1.1,4-1.3l2.5,0.1l3.1-3.6c0.7-0.3,1.6-0.8,2.8-1.7c1.2-0.9,3.3-2,6.2-3.5l18.6-16.9
			c2.5-3,4.5-4.5,5.9-4.6c1.5-0.1,2.4,0.8,2.5,2.7c0.2,2.2-0.1,4.1-0.8,5.7c-0.7,1.5-1.4,3.4-1.9,5.5s-1.2,3.7-2.1,4.6
			s-1.6,1.9-2.1,2.9s-2.1,2.6-4.6,4.6c-2.5,2.1-4.7,4.1-6.4,6.1c-1.7,2-3.1,3.5-4.3,4.4l-6.1,5.3l-0.8,1.6c-0.2,0.2-1.1,0.7-2.7,1.5
			s-3,1.8-4.3,2.9l-2.6,1.8c-0.6,0.5-1.5,0.8-2.9,1s-2.5,0.9-3.4,2.1s-1.7,1.8-2.3,1.8l-2.3-0.1l-3,1.2c-1.7,0.1-3.9-0.7-6.6-2.6
			s-4.1-4-4.3-6.3l-0.1-0.9l0.1-2.2c0-0.4-0.4-1.4-1.2-3s-1.1-2.5-1.2-2.7l0.1-2.2l-0.4-0.9c-0.2-2.7-0.2-4.5,0.2-5.2
			c0.3-0.7,0.6-1.8,0.7-3c0.1-1.3,0.2-2.3,0.3-3.2l0.4-3.9c0.3-1.3,0.7-2.1,1.3-2.6c0.1-0.8,0.4-2.2,0.9-4.2l0.4-2.8l1.3-2.3
			c0.7-0.9,1.1-2,1.2-3.4s0.4-2.9,1.2-4.5c0.8-1.6,1.2-2.6,1.1-2.9c-0.1-1.2-0.8-1.8-2-1.7c-0.4,0-1.6,1-3.6,2.8l-2.8-0.7
			c-0.2,0-0.7,0.6-1.5,1.7c0,0.4-0.4,0.8-1.3,1c-0.9,0.3-1.7,1.1-2.4,2.5l-1.2,0.4l-2.1-0.7l-0.6,0.1c-1,0.1-1.5,1.3-1.5,3.5
			c-1,1.7-2.4,2.9-4.1,3.6l-3.3,1.2c-1.1,0.5-1.8,1.5-2.2,3s-1.3,2.8-2.7,4.1c-1.4,1.3-2.4,2-2.9,2c-2.8,0.2-4.4-1.2-4.7-4.4
			l0.6-7.3L179.7,204.1z M239,122.3l-1.4-5.9l-0.1-0.9c-0.4-4.8,1-7.5,4.2-8.3c0.7-0.2,2.8-1,6.2-2.5c1.9,0.3,3.9,1.7,6.1,4.3
			c2.2,2.6,3.4,5,3.6,7.1c0,0.2-0.1,0.7-0.3,1.4c-0.2,0.7-0.3,2.1-0.3,4.1c0.1,2-0.8,3.8-2.5,5.4c-1.8,1.6-3.7,2.5-5.8,2.7
			c-1.4,0.1-3.3-0.7-5.7-2.5C240.7,125.5,239.3,123.9,239,122.3z"/>
		<path class="st0" d="M290.5,211.3l-0.1-1.1c-0.1-1.4-0.1-2.5,0-3.4c-0.7-1.6-1.2-3-1.3-4.3c0-0.2,0.4-1.7,1.2-4.4l1-4.8
			c0.6-1.9,0.9-2.9,1-3c-0.7-1.6-1.1-2.5-1.1-2.7c-0.2-2.3,0.3-4.3,1.5-6c1.2-1.6,2.1-3.9,2.8-6.7l2.2-9.5l4-12.6
			c0.1-0.3,0.5-1.2,1.2-2.6s1.4-2.6,1.8-3.6c0.5-1,1.1-2.5,2-4.4l1.5-0.4c0.4-0.4,0.5-0.9,0.5-1.3c0-0.2-0.3-1-0.8-2.4l4.6-9.3
			l2.6-6.8c0.9-1.8,1.9-3,3.1-3.6c1.7-3.9,3.3-6.4,4.7-7.3c0.4-2,1.4-4.2,2.8-6.5l2.9-0.6c0.4-1.5,0.8-2.6,1.2-3.3v-3.1
			c0.1,0.6,0.3,0.4,0.7-0.6c0.4-1,1-2.9,1.8-5.6l3.7-5.1l1-2.2c0.4-0.8,1.1-2.2,2.1-4.3c1.5-0.7,2.6-2,3.5-3.7l3-2.9
			c-0.3-1.1,0.7-3.7,3-7.8c1.7-0.9,3.2-1.9,4.5-3.1l2.1-0.8c-0.3-3.6,0.8-6.1,3.2-7.6l1.7-1.4c1.6-0.9,2.4-1.4,2.6-1.5l1-0.4
			c1.2-0.5,2.6-0.8,4.2-1c3.8-0.3,7.3,0.8,10.6,3.3c3.3,2.5,5.1,5.6,5.4,9.1c0.1,1.4-0.5,3-1.9,4.6l-0.5,1.3
			c-0.9,5.7-1.7,8.6-2.3,8.6c-0.4,0-0.9,0.4-1.6,1.1c0.1,3.4,0,5.3-0.1,5.7c-1.8,0.5-2.5,2.8-2.2,7.1c-0.2,0.6-0.8,1.7-1.9,3.3
			s-2,3.7-2.4,6.3c-0.5,2.6-1.1,4-2,4.1l-1.7,0.1l0.7,2.2c0.1,1.4-0.4,2.9-1.7,4.4c-1.3,1.5-2,3-2.1,4.6c-0.2,1.5-1.2,3.5-3.2,5.8
			l-1.3,2.6c-0.5,1.1-1.2,2.2-2.2,3.4c-0.9,1.2-1.6,3-2.1,5.4l-3.3,7.6c-2.3,5.2-4.2,7.8-5.6,7.7c-0.6,4-1,6.4-1.2,7
			c-0.3,0.6-0.9,1.3-2,1.9s-1.9,1.6-2.4,2.9s-1.1,2.3-1.7,3l-2.3,5.9c-1.6,0.9-2.6,2.3-3.2,4.3c-1.6,0.5-2.5,2-2.7,4.4
			c-0.4,0.4-0.8,1.4-1.3,2.9l-4.9,5.8c-2.6,2.2-3.9,4.5-3.8,7c0,2.5-1.2,3.9-3.6,4.1c-1.7,0.1-4.3-0.4-7.8-1.6h-0.3
			c-0.2,1.4-0.8,3.1-1.7,4.9l1,4.1c0,0.5-0.5,3.8-1.6,9.8c0.9,1.5,1.4,2.5,1.5,3.1v3.4l1.1,4c0.8,3.3,2.2,4.9,4.1,4.7l3.7,0.3
			c0.2,0,1.4-0.9,3.6-2.6l5.4-3.5c0.2,0,0.3,0.1,0.3,0.3c1,0.3,1.9,0.5,2.5,0.4c1-0.1,1.5-0.9,1.3-2.6l-0.2-2c0.5-1.1,1.2-1.7,2-2
			s1.6-0.8,2.2-1.6c0.6-0.8,1.2-1.2,1.6-1.2l1.5-0.1c1.5-0.1,2.1-2,1.8-5.5c0.4-0.2,0.9-0.7,1.4-1.3l1.8-0.2
			c0.8-0.1,1.6-1.1,2.4-3.2s1.4-3.3,1.7-3.8c1.8-0.4,3-0.8,3.7-1.2c2.7-6.2,5-9.3,6.7-9.5l0.9-0.1c1.6-1.8,2.4-3.3,2.4-4.6
			c0-1.3,0.5-2.2,1.3-2.6c0.8-0.5,1.6-1.1,2.2-1.7c0.7-0.7,1.1-1,1.3-1c1.5-0.1,2.3,0.4,2.4,1.5l-0.1,4.3l1.5,4.5
			c0,0.4-0.3,1.2-1.1,2.5c-0.8,1.2-1.1,2.6-1,4c0.3,2.9-0.1,4.6-1.1,4.8c-1,0.3-1.8,1-2.3,2.3c-0.6,1.2-1.6,2.4-3,3.5
			s-2.5,2.6-3.1,4.5l-2.5,0.8l-1.4,1c-0.9,3.3-2.1,5.3-3.4,6.1c-1.3,0.8-2.8,3.1-4.5,6.8c-0.3,0-0.4,0.1-0.4,0.3l-2.5-0.1
			c-0.8,1.7-1.6,2.7-2.5,3.1s-1.6,1-2.1,1.9s-1.6,1.7-3.1,2.5c-1.5,0.7-2.4,1.5-2.8,2.4c-0.3,0.8-0.9,1.4-1.7,1.5
			c-0.8,0.2-1.5,0.6-2.2,1.3c-0.7,0.7-1.2,1.1-1.7,1.1c-0.2,0-0.9,0-2.2-0.1l-0.6,0.1c-1.6,1.4-3,2.1-4.1,2.2
			c-1.3,0.1-2.3,0.4-2.8,0.9c-0.6-0.4-1.6-0.6-2.9-0.7s-2.8-0.5-4.5-1.2c-1.7,0.6-2.7,0.8-3.1,0.9c-1.7,0.1-4.1-1.4-7-4.5
			c-2.9-3.2-4.5-6.4-4.8-9.6c0-0.1-0.7-0.8-2-2.2c-1.3-1.4-2-2.9-2.2-4.6l-0.1-1.5l0.1-1.9l-0.2-2.9l0.2-0.9
			c1.5-0.3,2.2-0.6,2.2-0.8L290.5,211.3z M318,168.3l3-2.1c0.3-1.7,1.4-3.7,3.5-6.2c2-2.5,3.5-3.8,4.4-3.8l1.2-0.1
			c-0.1-0.7,0-1.4,0.3-2.2c0.2-0.7,0.3-1.7,0.2-2.9c-0.1-0.6,1.2-2.4,3.7-5.4l1-2.8c0.7-2.7,2.8-5.1,6.3-7.1
			c1.2-3.1,2.1-4.6,2.8-4.7l1.2-0.4c0.3-1.6,1-3,2.1-4.3l0.5-1l-0.2-2.4c0-0.2,0.6-1.1,1.8-2.7c1.2-1.6,2.1-3,2.6-4.4
			c0.5-1.3,1.3-2.4,2.3-3.2s1.6-2.1,1.9-4l2.4-0.5c-0.1-1.3-0.1-2.2,0.1-2.6l0.2-1.5c0.4-1.3,1.9-4.6,4.5-10.1l2-5.8
			c-0.1-0.6,0.3-1.4,1.1-2.3c0.8-0.9,1.1-2.2,1-3.8l0.8-5.1c-0.2-2.3-0.7-3.5-1.5-3.4c-1,0.8-1.9,1.4-2.7,1.8
			c-0.8,0.4-1.5,2.3-2,5.7c-3,1-4.6,2.6-4.9,4.8s-1.4,4.2-3.3,5.9l-0.9,1.9c-0.1,1.1-1,2.4-2.6,3.7c-1.6,1.4-3.1,3.6-4.3,6.7
			c-4.5,7.4-6.9,11.4-7.4,12l-1.4,2l-2.3-0.1c0.5,1.6,0.8,2.5,0.8,2.7c0.1,0.6-0.2,1.2-0.8,1.8c-0.6,0.6-1,1.3-1.2,2.2
			c-0.2,0.8-0.8,1.8-1.6,3c-0.8,1.1-1.5,2.9-2.1,5.4s-1.1,3.9-1.7,4.4l-2.2-0.1c-1.3,0.9-1.8,1.8-1.8,2.6l0.6,2.1
			c0,0.4-0.2,0.9-0.7,1.5s-0.9,1.7-1.3,3.4c-0.4,1.7-1.4,4.2-3.2,7.7c-1.7,3.5-3,7.1-3.9,10.9s-1.8,6.3-2.8,7.4
			c0.2,0.2,0.5,0.3,0.9,0.2C315.8,172.7,317,171.2,318,168.3z"/>
		<path class="st0" d="M393.9,100.3l2.1-0.8l1.4-1.7h0.3l1.4,0.5h0.3c2.4-0.2,4.6-0.9,6.4-2s3.3-1.9,4.6-2.5c1.2-0.5,2-0.9,2.3-1.1
			c0.3-0.2,0.5-0.4,0.7-0.4l2.5,0.1c0.8-0.1,1.8-1.6,2.9-4.6s2.5-5.2,4.1-6.7s3.1-4.1,4.5-7.9c0.4-0.5,0.8-1.4,1.2-2.5
			c0.4-1.1,0.8-1.7,1.1-1.7c1.5-0.1,2.7-1.2,3.4-3.2c2.7-3.8,5.1-5.8,7-6c2.5-0.2,4.5,2.1,6,6.9l2,5.7c0,0.1-0.2,0.9-0.6,2.3
			c-0.4,1.4-0.5,2.8-0.3,4.2s0.2,2.3,0.1,2.8s-0.1,1-0.1,1.6c0.1,0.8,1,1.1,2.7,1c0.6-0.1,1.7-0.6,3.2-1.5l0.9-0.4
			c1.1,0.5,2,0.8,2.7,0.7c0.2,0,1.6-0.6,4.2-1.9c2.6-1.2,4.3-1.9,5-2.1c0.7-0.2,1.9-0.7,3.5-1.5l1.8-0.2l1.3,0.4
			c0.4,0,1.2-0.5,2.4-1.5s3.6-1.7,7.1-2.2l2.1-1.1l0.6-0.1c3.3-0.3,5.2,1,5.4,4c0.1,0.6-0.3,1.7-1.2,3.3c-0.8,1.6-1.5,3.4-1.9,5.4
			l-6.2,9.4c-2.1,3.2-4.3,5-6.6,5.2c-0.4,0-1.8-1.2-4.2-3.8c0-0.2-0.2-0.3-0.6-0.3c-1,0.1-2.1,0.4-3.1,0.9c-1.1,0.5-2,0.8-2.7,0.8
			c-0.3,0-2.9,1-7.9,3l-3.6,0.9c-0.4,0-1.4,0.3-2.8,0.9l-7.6,2.2c-2.5,1.5-4.4,4.2-5.6,8c0,0.2-0.5,0.7-1.4,1.5l-5.8,13.1
			c-2.2,0.8-3.5,2.2-4.1,4.3l-0.5,1c-1.1,0.3-2.1,1-2.9,2.2c-0.8,1.1-1.6,2.1-2.4,2.7l-2.4,4.3c-1,1.5-2,3.2-3,4.9
			c-1,1.8-1.6,3.6-2,5.5c-0.3,1.9-0.7,3-0.9,3.4c-0.3,0.3-0.4,0.9-0.3,1.7l-0.4,1.3c-1.1,1.3-1.6,2.7-1.5,4.3l0.8,2.4
			c-1,5-1.5,7.6-1.5,7.9c0,0.2,0.2,0.8,0.4,1.6l0.1,0.9c0.2,2.2-0.4,5.1-1.7,8.6l0.5,2.4l-0.3,6.9c0.1,0.9,0.5,2.6,1.3,4.9
			c-0.4,0.4-0.6,0.8-0.5,1c0.2,2.8,2,5.8,5.3,9c3.3,3.1,5.2,8.3,5.9,15.5c0.1,0.6,0,1.5-0.2,2.7s-0.3,2.5-0.3,3.9s-0.7,2.8-2,4.2
			c-1.4,1.4-2.5,2.2-3.6,2.3c-5.4,0.5-9.7-3.1-13.1-10.7c-3.3-7.6-5.1-12.5-5.3-14.7l-0.2-6l-1.2-3l-0.2-13.5l-0.9-3.1l2.4-13.4
			l-0.4-4.7c0-0.2,0.6-1.1,1.9-2.6c0-0.2-0.2-0.3-0.6-0.3c-0.6,0.1-1.4,0.7-2.3,2s-2.1,2.6-3.5,3.8l-1,2.2c-0.2-0.2-0.6-0.4-1.3-0.5
			c-0.5,0.2-2,2.8-4.4,7.6c-2.1,0.5-3.7,1.8-4.7,4.1c-1,2.2-2.6,3.4-4.8,3.6l-0.6,0.4c-0.2,3-1.5,4.6-3.9,4.8l-0.6,0.4
			c-1.2,3.6-2.7,5.4-4.3,5.4c-0.8,3.1-3.1,5.4-6.9,6.9c-0.5,1.3-1.3,2.3-2.4,3s-1.9,1.3-2.4,1.9s-0.9,0.8-1.3,0.9
			c-1.3,0.1-2.1-1.3-2.3-4.1c-0.1-0.8,0.2-1.7,0.8-2.8c0.6-1,0.9-1.7,0.8-2.1c0-0.2-0.6-0.8-1.7-1.7c-0.3-3.1,0.4-5.2,1.9-6.1
			c1.6-1,2.7-2.2,3.4-3.8c0.4-1.3,1.3-2.2,2.8-2.8c1.5-0.6,2.2-1.4,2.1-2.2c-0.1-0.7,1.1-2.2,3.6-4.6s4.2-4.4,5.3-6.1
			c1.1-1.7,2-2.6,2.8-2.6l0.6-0.7c0-2.6,0.8-3.9,2.6-4.1l1.4-1l0.2-1.2l0.9-0.7l1.2-0.1l0.7-0.7c0-2.6,1-4.6,3.1-6.2
			s5.7-5.9,10.9-13c5.2-7,8.1-11.5,8.7-13.4s1.6-4.5,3.3-7.7c1.6-3.3,2.4-6.3,2.4-9c-0.2-0.4-0.6-0.8-1-1.1l-6.3,3.8
			c0-0.3-1.1-0.7-3.2-1.1c-1.4,1-2.5,2.1-3.1,3c-0.6,1-1.2,1.5-1.6,1.5l-2.2-0.1l-6.6,1.3c-5.9,1-10.4,2.6-13.2,4.8l-6.1,2.4
			l-1.4,0.1c-0.8,0.1-2,0.7-3.5,1.8h-3.5c-3.1,2-5.4,3.1-6.9,3.2c-0.2,0-0.8,0-1.9-0.1l-15.2,5.6c-1.2,0.5-3.7,2.8-7.7,6.9l-1.2,0.4
			c-1,0.1-2.3-1-3.9-3.1c-1.6-2.2-2.4-4.2-2.6-6c-0.9-10,7.3-16.6,24.4-19.7l6-3h0.3l1.7,0.5l0.6-0.1c0.6-0.1,1.5-0.5,2.8-1.4
			s4.1-2.1,8.6-3.6l6.1-2.2l2,0.1c1-0.1,2.1-0.6,3.3-1.5c1.2-0.9,3.1-1.7,5.6-2.2c2.6-0.6,4.3-1.1,5.3-1.6l2.4-0.8
			c0.4,0,1.2-0.5,2.4-1.3c1.2-0.8,2.8-1.3,4.9-1.5C391.9,99.9,392.7,100,393.9,100.3z"/>
		<path class="st0" d="M560.1,185l2.2-2.3c1.5-0.1,2.4-0.9,2.6-2.3c0.2-1.4,1.2-2.6,3-3.6s3.4-2.8,4.8-5.4c1.4-2.6,3-4,4.7-4.2
			c0.6-0.1,1.4,0.4,2.3,1.3c0.9,0.9,1.4,1.7,1.4,2.3c0.3,3.4-0.4,6.9-2.2,10.6l-0.2,4.3l-0.9,2.1c-1.5,0.9-2.4,1.9-2.7,2.8
			c-0.4,1-1.5,2.2-3.3,3.7l-1.3,2.3c-2.2,0.9-3.6,2.2-4.2,3.9c-0.6,1.7-1.6,2.7-3,3s-2.8,1.5-4.2,3.4c-1,0.6-2.2,1.2-3.5,1.7
			l-0.2,1.5c-0.9,1.1-2.5,2.1-4.6,2.8c-2.1,0.8-3.7,1.5-4.7,2.2s-1.7,1-2.1,1c-1.9,0.2-3.7-0.1-5.4-0.7s-3.4-1-5.1-1
			c-0.7-0.6-1.1-1.2-1.2-1.9c-0.2-0.7-0.8-1.6-1.8-2.7s-1.6-2.6-1.8-4.7l0.4-2.9c0-0.4-0.3-0.9-0.9-1.5c-0.6-0.6-0.9-1.1-0.9-1.5
			s0-0.7,0.2-0.9c0.2-0.2,0.3-0.5,0.2-0.9c0-0.5-0.2-1.1-0.4-1.6c-0.3-0.6-0.4-1.1-0.4-1.5l0.3-7.5c-0.1-0.6-0.3-0.9-0.7-0.9
			s-1.1,0.6-2.1,1.7s-2.2,1.7-3.6,1.8c-0.8,0.7-1.3,2-1.7,4c-0.7,1.1-1.7,2.1-2.8,3l-0.5,1c-0.1,0.7-0.9,1.4-2.1,1.9
			c-1.3,0.6-2.1,1.2-2.6,2l-1.4,1.7l-2.9-0.1c-0.2,0.2-0.7,1.2-1.4,2.8c-0.8,1.7-1.8,3-3.2,4.2l-10.8,10.4c-1.1,0.9-2.8,2.1-5.1,3.5
			l-0.8,1c-7.7,6.1-13.2,9.3-16.5,9.5c-2.7,0.2-6-0.3-9.8-1.5s-5.9-2.9-6.4-5l-2.1-6.1c-1-1.3-1.7-3.3-1.9-5.8
			c-0.1-1.2-0.1-2,0.1-2.5l-0.1-0.9l-0.7-5c-0.1-1.2,0.8-1.9,2.7-2.1l-0.7-4.1c0-0.4,0.7-2.1,2.3-5c1.5-2.9,2.6-4.6,3.2-5.1l1.4-2.1
			c-0.2-1.2,0.4-2.6,1.8-4.1s2.5-3,3.3-4.5s2.4-3.2,4.8-5.2l4.2-5c3.3-3.9,6.9-7,10.9-9.5c0.6-0.3,1.7-1.4,3.5-3.4
			c1.7-2,3.7-3.5,6.1-4.6c2.3-1.1,4.6-2.4,6.7-3.9c2.2-1.5,3.9-2.3,5.2-2.4l1.2-0.1c0.4,0,3-1.5,7.8-4.5l0.9-0.1c0.4,0,1.4,0.3,3,1
			h0.3l2.3-1.4c0.4-0.2,0.9-0.4,1.5-0.4c6.3-0.5,10.1,3.5,11.5,12.2c0.4,1.8,0.9,2.7,1.8,2.6c1-0.1,2.3-2.1,3.9-5.9
			c1.6-3.9,5.4-6.1,11.5-6.6c4.4-0.4,6.8,2.2,7.3,7.8c0.6,6.6-1.8,13.1-7.2,19.5c-0.3,0.8-0.6,1.8-0.7,2.8l-1.6,6.4v0.3
			c0.1,0.6-0.3,1.5-1.1,2.6s-1.1,2.1-1.1,2.9l0.6,3.8l-0.2,4.3c0.2,1.9,0.6,3.2,1.4,3.7c3.2-1.1,5.4-2.6,6.7-4.6s2.3-3.1,2.8-3.4
			l1.5-0.7C558,187.5,558.9,186.1,560.1,185z M509.5,189.3c0.2-2.3,1.3-4.1,3.3-5.4c2-1.3,3.1-2.6,3.4-3.9c1.8-1.6,4.4-4.4,7.6-8.3
			c3.3-4,4.9-6.3,4.8-7.2c0-0.3-0.2-0.4-0.6-0.4h-0.3l-1.2,0.9l-2.8-0.1l-2.9,0.6l-2.2-0.9l-2,0.5l-3.1-0.3c-1.6,0.1-3,0.6-4.1,1.3
			c-1.1,0.8-3.3,1.7-6.5,2.8c-3.2,1.1-6.1,2.7-8.5,5c-2.5,2.2-4.3,3.4-5.5,3.5c-0.6,1.6-2.8,4-6.6,7.2c-2.4,1-3.8,2.9-4.3,5.7
			c-2.5,2.4-3.7,3.7-3.6,4l-0.8,2.7c-0.8,0.8-1.7,1.5-2.9,2c-1.2,0.6-1.8,1.7-1.9,3.4c-0.1,1.7-0.6,3.3-1.7,4.7
			c-1,1.5-1.5,2.6-1.5,3.4c0.4,5,1.6,7.4,3.5,7.2c0.8-0.1,2.5-0.7,5-2s3.9-2.2,4.3-2.6c0.4-0.4,1.1-0.9,2.3-1.4l2.8-1.8
			c0.4-0.4,0.8-0.7,1.3-0.9c0.5-0.1,1-0.5,1.4-1.1c0.5-0.6,1.3-1.3,2.6-2.1c1.3-0.8,2.2-1.7,2.8-2.9c1.6-1.2,4.3-3,8-5.4l3-2.7
			c2.1-1.2,3.4-2.2,3.9-2.9C507.1,191,508,190.2,509.5,189.3z"/>
		<path class="st0" d="M636.3,211.4l-0.9,2.2c-0.3,1.2-1.3,1.8-2.9,1.9c-0.2,0-1.8,0.8-4.9,2.3c-3,1.5-5.6,2.3-7.6,2.5l-4.1,0.7
			c-2.4,0.2-4.8-0.3-7.3-1.4c-2.4-1.2-4.2-2.3-5.3-3.3s-2.8-4.3-5-9.7c-2.3-5.4-3.4-8.7-3.5-9.8c-0.3-4,0.5-6.2,2.6-6.8
			c-0.1-0.6-0.6-1.7-1.7-3.3c-1.1-1.6-1.7-2.5-1.7-2.7c-0.5-6.3,0.4-11.3,2.9-15c-1.6-3.9-2.4-6-2.4-6.4c0-0.2,0.2-1.1,0.5-2.6
			c0.4-1.5,0.6-2.9,0.7-4.1c0.1-1.2,0.3-2.3,0.7-3.1l0.1-2.6c0.1-1.2,0.8-1.9,2.1-2c0.6-0.1,0.9-0.5,0.8-1.3l-0.1-1.2l-0.5-2
			c-0.2-2.8,0.3-5,1.6-6.3c1.3-1.4,2.1-3.3,2.3-5.9c0.2-2.5,0.7-4.1,1.3-4.8c0.7-0.7,1.1-1.8,1.4-3.3l1.8-4.4l1.2-5.8
			c0.1-1.1,0.6-1.9,1.6-2.3c1-0.4,1.4-0.9,1.4-1.5l-0.5-1.8c0.6-2.2,1.1-3.8,1.3-4.7s1.1-1.8,2.5-2.5c1.1-3.6,2.2-6.1,3.1-7.6
			c0.9-1.5,1.6-3.2,2.1-5.1c0.5-1.9,1.8-3.8,4.1-5.7c0.2-0.4,0.5-1.5,1-3.2s1.3-2.7,2.3-3s1.5-0.7,1.4-1.3l-0.7-1.2
			c-0.1-0.8,0.6-2.3,1.9-4.6l1.5-3.5c0.8-1.1,1.8-1.9,2.8-2.5c1.2-3,2.8-6,4.7-9c2-3,3.7-6.2,5-9.6c2.1-2.9,4.1-5.1,6-6.5l4.5-6.7
			c1-2.6,2.1-4,3.3-4.1c1.6-3.8,3.8-6.4,6.5-7.8c0.5-0.2,1.8-1.5,4.1-3.6c2.2-2.2,4.2-3.4,6.1-3.5c1.6-0.1,3.9,1.5,6.7,4.8
			s4.4,6.2,4.6,8.7c0.1,0.6-0.2,1.5-0.8,2.8c-0.6,1.2-0.8,2.5-0.8,3.8c0,1.3-0.3,4.9-0.9,10.9c-0.6,6-1.3,9.4-2,10.3l-3.4,8.3
			c-0.3,1.3-0.7,2-1.2,2.2s-1,1.1-1.6,2.6l1,3.1h-0.3c-1,1.3-2,3.7-2.9,7.2c-1.4,2.6-2.6,5-3.6,7.3s-1.4,3.8-1.4,4.5l-0.7,2.2
			c-1.9,3.5-3.2,6.4-3.7,8.4c-0.9,0.9-1.6,2.1-2.1,3.6c-0.4,1.5-1.1,2.6-1.9,3.3c-0.9,0.7-1.3,1.9-1.5,3.6c-0.1,1.6-0.3,2.6-0.6,3
			h-3.1v0.3l0.7,4.4c0,0.4-0.4,0.9-1.3,1.5c-0.9,0.6-1.7,1.8-2.2,3.5c-0.6,1.7-1.8,2.8-3.6,3.1c-0.9,0.7-1.4,1.3-1.5,2l0.9,2.8
			c-0.2,0.2-0.9,1.4-2.1,3.4c-1.2,2-2,3.1-2.3,3.3l-3.2,0.6c-0.6,0.3-0.7,2.1-0.5,5.4c0.2,2.2-0.7,3.8-2.7,4.8
			c-4.6,8.6-7.3,13.4-8,14.3c-0.8,1-2.4,1.8-4.8,2.6c0,0.2-0.2,0.3-0.6,0.4c-1,0.1-3.3-1.2-6.9-3.9h-0.3c-0.8,6-1.6,9.4-2.2,10.3
			c-0.7,0.9-1,1.8-0.9,2.8l1.7,2.6v0.5c0.2,2.8,0,6.4-0.6,10.6l0.1,0.9l0.9,3.1l0.5,5.6v3.4c0.9,1.4,1.4,2.6,1.5,3.7
			c0.3,3.3,1.2,4.8,2.8,4.7c0.8-0.1,2-1.2,3.5-3.4l1.7-1.1c1.8-1,3.4-2.9,4.8-5.9c1.4-3,2.1-5.5,1.9-7.5c-0.2-2.1-2.4-3-6.5-2.7
			c-2.1-0.2-3.3-2.3-3.6-6.3c-0.2-1.8,0.5-3.5,1.9-5.1s2.6-3.3,3.6-5c2.1-4,4.5-6.1,7.3-6.3l7.5-3.4c0.8-0.1,1.6,0,2.4,0.3
			s1.8,0.5,3.1,0.8c3.1-1.5,4.8-2.3,4.9-2.3c3.6-0.3,6.1,1.3,7.6,4.9c0.1,0.7,0.9,1,2.5,0.9c3.6-0.3,6.4-1.6,8.6-4
			c2.2-2.4,4.6-4.4,7.2-6c2.6-1.6,4.6-3.2,6.2-4.8c1.5-1.6,2.5-2.4,2.9-2.5l2.3-0.2c0.2,0,0.8-0.7,1.7-2.1s2.7-2.2,5.5-2.5
			c1-0.1,1.6,0.3,1.6,1.1c0.5,5.4-0.1,8.6-1.5,9.7c-1.5,1.1-3.2,3.5-5.1,7.1L690,164c-0.9,1-1.8,2.1-2.5,3.3
			c-0.7,1.2-1.5,1.9-2.3,2.2c-2,3.8-3.7,5.7-4.9,5.8c-0.6,0.1-1.3-0.1-2.1-0.6c-0.8-0.4-1.3-0.7-1.5-0.6c-0.6,0.1-1,1.3-1.2,3.8
			c-0.5,1-2.1,2.6-4.6,4.8c-0.4,0-1.2-0.5-2.3-1.6c0-0.2-0.1-0.3-0.3-0.3c-1.6,0.1-2.5,1.1-2.7,3s-1.3,3-3.2,3.3l-6,1.6h-3.5
			c-0.8,0.1-2.4,2.7-4.6,7.9c-2.3,5.2-3.7,7.9-4.3,8.2c-3.1,1.3-5.1,3.3-6.1,6.2L636.3,211.4z M673.2,32.3l-0.2-1.8
			c-2.3,0.8-3.8,3.1-4.5,7l-1.1,1.3c-1.8,1.4-3.2,3.2-4.1,5.5c-0.9,2.3-2.5,5.1-4.8,8.5l-0.5,1.9l-3.1,4.7l-0.4,2.9
			c-0.2,0.4-0.9,1.1-2.1,2.2c-1.2,1-2,2.3-2.3,4c-0.3,1.6-1.3,3.6-2.9,5.9c-1.6,2.3-2.7,3.9-3.3,4.7s-1.6,3.6-2.9,8.5l-0.8,1.6
			c0.1,0.9-0.4,1.7-1.3,2.4l-5,7.3c0,0.4,0,1.9-0.2,4.5c-1.5,0.3-2.4,1-2.7,2.1l-2,5.8c-0.2,0.6-0.6,1.4-1.3,2.3
			c-0.9,5-2.5,8.7-4.7,11.1l-2.9,7.5c-0.3,0.8-0.5,2-0.6,3.4l-0.2,0.9c-1,2.4-1.5,4.3-1.4,5.5c0,0.4,0,1.7,0,3.8h0.3
			c0.2,0,0.6-0.3,1.2-0.9c0.6-0.6,1.3-1.2,2.3-2c1-0.7,1.7-2.1,2.1-3.9c0.5-1.9,1.3-3.3,2.6-4.1c1.3-0.9,2.1-1.7,2.5-2.6l8.1-13
			c0.5-0.9,1.3-1.9,2.3-3c1-1.2,1.4-2,1.4-2.6l1-2.2c0.6-0.7,1.5-1.9,2.8-3.6c1.3-1.7,2.4-3,3.1-3.6c0.8-0.7,1.1-1.7,1.1-3
			s0.4-2.7,1.3-4.3l0.5-1.3c1-1.4,1.8-2.5,2.5-3.1c0.7-0.7,1-1.4,1-2.1c0-0.7,1.1-2.1,3.2-4.3c0.1-1.5,1.1-4.1,2.9-7.7
			c1.9-3.6,3.3-6.8,4.2-9.6s1.8-4.8,2.8-6c1-1.2,1.5-3.1,1.6-5.9l1.3-2.6l3.6-13.5l-1-3.1L673.2,32.3z"/>
		<path class="st0" d="M790.6,165.2l2.2-2.3c1.5-0.1,2.4-0.9,2.6-2.3c0.2-1.4,1.2-2.6,3-3.6s3.4-2.8,4.8-5.4c1.4-2.6,3-4,4.7-4.2
			c0.6-0.1,1.4,0.4,2.3,1.3c0.9,0.9,1.4,1.7,1.4,2.3c0.3,3.4-0.4,6.9-2.2,10.6l-0.2,4.3l-0.9,2.1c-1.5,0.9-2.4,1.9-2.7,2.8
			s-1.5,2.2-3.3,3.7l-1.3,2.3c-2.2,0.9-3.6,2.2-4.2,3.9c-0.6,1.7-1.6,2.7-3,3s-2.8,1.5-4.2,3.4c-1,0.6-2.2,1.2-3.5,1.7l-0.2,1.5
			c-0.9,1.1-2.5,2.1-4.6,2.8c-2.1,0.8-3.7,1.5-4.7,2.2s-1.7,1-2.1,1c-1.9,0.2-3.7-0.1-5.4-0.7s-3.4-1-5.1-1
			c-0.7-0.6-1.1-1.2-1.2-1.9c-0.2-0.7-0.8-1.6-1.8-2.7s-1.6-2.6-1.8-4.7l0.4-2.9c0-0.4-0.3-0.9-0.9-1.5c-0.6-0.6-0.9-1-0.9-1.5
			c0-0.4,0-0.7,0.2-0.9c0.2-0.2,0.3-0.5,0.2-0.9c0-0.5-0.2-1.1-0.4-1.6c-0.3-0.6-0.4-1.1-0.4-1.5l0.3-7.5c-0.1-0.6-0.3-0.9-0.7-0.9
			s-1.1,0.6-2.1,1.7s-2.2,1.7-3.6,1.8c-0.8,0.7-1.3,2-1.7,4c-0.7,1.1-1.7,2.1-2.8,3l-0.5,1c-0.1,0.7-0.9,1.4-2.1,1.9
			c-1.3,0.6-2.1,1.2-2.6,2l-1.4,1.7l-2.9-0.1c-0.2,0.2-0.7,1.2-1.4,2.8c-0.8,1.7-1.8,3-3.2,4.2l-10.8,10.4c-1.1,0.9-2.8,2.1-5.1,3.5
			l-0.8,1c-7.7,6.1-13.2,9.3-16.5,9.5c-2.7,0.2-6-0.3-9.8-1.5s-5.9-2.9-6.4-5l-2.1-6.1c-1-1.3-1.7-3.3-1.9-5.8
			c-0.1-1.2-0.1-2,0.1-2.5l-0.1-0.9l-0.7-5c-0.1-1.2,0.8-1.9,2.7-2.1l-0.7-4.1c0-0.4,0.7-2.1,2.3-5c1.5-2.9,2.6-4.6,3.2-5.1l1.4-2.1
			c-0.2-1.2,0.4-2.6,1.8-4.1c1.4-1.5,2.5-3,3.3-4.5s2.4-3.2,4.8-5.2l4.2-5c3.3-3.9,6.9-7,10.9-9.5c0.6-0.3,1.7-1.4,3.5-3.4
			c1.7-2,3.7-3.5,6.1-4.6c2.3-1.1,4.6-2.4,6.7-3.9c2.2-1.5,3.9-2.3,5.2-2.4l1.2-0.1c0.4,0,3-1.5,7.8-4.5l0.9-0.1c0.4,0,1.4,0.3,3,1
			h0.3l2.3-1.4c0.4-0.2,0.9-0.4,1.5-0.4c6.3-0.5,10.1,3.5,11.5,12.2c0.4,1.8,0.9,2.7,1.8,2.6c1-0.1,2.3-2.1,3.9-5.9
			c1.6-3.9,5.4-6.1,11.5-6.6c4.4-0.4,6.8,2.2,7.3,7.8c0.6,6.6-1.8,13.1-7.2,19.5c-0.3,0.8-0.6,1.8-0.7,2.8l-1.6,6.4v0.3
			c0.1,0.6-0.3,1.5-1.1,2.6s-1.1,2.1-1.1,2.9l0.6,3.8l-0.2,4.3c0.2,1.9,0.6,3.2,1.4,3.7c3.2-1.1,5.4-2.6,6.7-4.6s2.3-3.1,2.8-3.4
			l1.5-0.7C788.5,167.7,789.5,166.3,790.6,165.2z M740,169.5c0.2-2.3,1.3-4.1,3.3-5.4s3.1-2.6,3.4-3.9c1.8-1.6,4.4-4.4,7.6-8.3
			c3.3-4,4.9-6.3,4.8-7.2c0-0.3-0.2-0.4-0.6-0.4h-0.3l-1.2,0.9l-2.8-0.1l-2.9,0.6l-2.2-0.9l-2,0.5L744,145c-1.6,0.1-3,0.6-4.1,1.3
			c-1.1,0.8-3.3,1.7-6.5,2.8c-3.2,1.1-6.1,2.7-8.5,5c-2.5,2.2-4.3,3.4-5.5,3.5c-0.6,1.6-2.8,4-6.6,7.2c-2.4,1-3.8,2.9-4.3,5.7
			c-2.5,2.4-3.7,3.7-3.6,4l-0.8,2.7c-0.8,0.8-1.7,1.5-2.9,2c-1.2,0.6-1.8,1.7-1.9,3.4c-0.1,1.7-0.6,3.3-1.7,4.7
			c-1.1,1.5-1.5,2.6-1.5,3.4c0.4,5,1.6,7.4,3.5,7.2c0.8-0.1,2.5-0.7,5-2s3.9-2.2,4.3-2.6c0.4-0.4,1.1-0.9,2.3-1.4l2.8-1.8
			c0.4-0.4,0.8-0.7,1.3-0.9c0.5-0.1,1-0.5,1.4-1.1c0.5-0.6,1.3-1.3,2.6-2.1c1.3-0.8,2.2-1.7,2.8-2.9c1.6-1.2,4.3-3,8-5.4l3-2.7
			c2.1-1.2,3.4-2.2,3.9-2.9C737.6,171.2,738.6,170.4,740,169.5z"/>
		<path class="st0" d="M867,163.4l1.3,1.1c2.2,1.9,3.5,3.4,3.8,4.5c0.4,1.1,1,2.3,1.9,3.5s1.4,2.3,1.5,3.3c0,0.4-0.5,1.4-1.6,3
			s-1.8,4.9-2.1,9.9s-2.7,7.7-7,8.1c-3.8,0.3-6.5-0.4-8.3-2.2c-1.7,0.1-2.9,0-3.5-0.4s-1.6-1.9-3.2-4.6c-1.5-2.6-2.7-4.4-3.7-5.2
			c-0.9-0.8-1.5-2.1-1.6-3.8c-0.2-2.2,0.4-4.4,1.9-6.5s2.4-4.3,3-6.5c2.9-3.4,4.9-5.2,6-5.4c1.1-0.2,2-0.5,2.8-0.9s1.6-0.6,2.6-0.7
			C862.7,160.5,864.7,161.4,867,163.4z M902.6,56.7l-1.4,1.3l-3.5,7.8c-0.2,0.6-0.5,1.3-1.1,2.1l-1.8,2.9c-0.4,2.2-1.1,4-2.2,5.4
			c-1,1.4-1.6,2.8-1.8,4.1s-0.6,2.3-1.2,3.1c-0.6,0.8-1.2,2.9-1.7,6.3l-2.5,10.5l-1.8,2.8l0.2,1.8c0.1,0.6-0.7,1.5-2.2,2.6l0.5,5.3
			c-1,1.6-2,3.7-3,6.2l-0.5,10.3c-0.2,9.1-1.3,14.6-3,16.4l-1.8,2c-0.4,1.2-1.4,1.8-2.9,1.9c-0.8,0.1-2.7-1.1-5.7-3.7l-1.9-0.5
			c-1.8-0.7-3.7-2.4-5.6-5.3c-1.9-2.9-3-5.7-3.2-8.3c-0.3-3.6,0-6.2,0.8-7.8c0.8-1.7,1.3-2.9,1.3-3.7l6-21.1
			c2.3-8.4,5.1-15.4,8.1-20.9l1.6-6.1l1.4-2l1-6.1c0.4-0.4,1-1.1,1.8-1.8c1.1-5.2,2.3-8.7,3.5-10.5c1.3-1.8,2.1-3.9,2.5-6.3
			c0.4-2.4,1-3.9,1.9-4.5s1.5-2.3,1.8-5.1s2.1-4.8,5.2-6l-1.1-1.9v-0.3c0-0.2,0.6-1.2,1.7-2.9c1.2-1.7,2.7-6.2,4.5-13.4
			s4.6-11,8.4-11.3c1.9-0.2,4.9,2.1,8.9,6.8c4,4.7,6.2,8.3,6.4,10.7c0.3,3.1-1.4,7.2-4.9,12.2c-3.6,5-6.3,9.7-8.1,14
			c-1.8,4.4-2.9,7.4-3.3,9.3C903.6,55.1,903.1,56.2,902.6,56.7z"/>
	</g>
	<g>
		<g>
			<g>
				<g>
					<g>
						<path class="st0" d="M932.2,321.4c1.2,0.5,1-0.5,1.3-0.6C931.3,320.3,932.1,321.7,932.2,321.4z"/>
						<polygon class="st0" points="911,315.5 911.5,315.3 908.1,314.9 						"/>
						<path class="st0" d="M890.7,308.7c0.8,1,2.7,1.4,4.9,1.8c2.1,0.4,4.5,0.9,6.2,1.8l0.5,0.5l2-0.6c-2.2-0.7-4.8-1.4-7.3-1.9
							c-1.2-0.3-2.4-0.5-3.5-0.8C892.5,309.2,891.5,309,890.7,308.7z"/>
						<path class="st0" d="M880.1,303.5c0.3,0.4-0.3,0.4-0.4,0.4c0.1,0,0.4,0,2.7,0.1c-0.2-0.1-0.3-0.1-0.4-0.2
							C881.6,303.8,881.1,303.8,880.1,303.5z"/>
						<path class="st0" d="M882,303.9C884,304.1,880.8,303.2,882,303.9L882,303.9z"/>
						<path class="st0" d="M872.6,302.4c0.9,0.1,1.9,0.1,2.8,0.1c-0.5-0.4-2.8-1.1-1.9-1.1C870.7,301,871.1,301.5,872.6,302.4z"/>
						<path class="st0" d="M869.7,302.9l1.5,0.1C871,302.8,870.6,302.7,869.7,302.9z"/>
						<path class="st0" d="M874.3,303.2c-1,0-2.1-0.1-3.1-0.2c0.3,0.3,0.3,0.8,1.4,0.2C872.3,303.6,873,303.3,874.3,303.2z"/>
						<path class="st0" d="M875.9,303.8c1.4,0.7,3.4,1.2,0.6,1.2C881.7,305.8,881.1,304.6,875.9,303.8z"/>
						<path class="st0" d="M889.3,310c0.7,0.3,1.4,0.6,2.1,0.9c0.7,0,1.3-0.1,2,0C892.4,310.9,889.3,309.4,889.3,310z"/>
						<path class="st0" d="M855.7,297c-0.3,0.3,0.7,1.1,0.8,1.6l2.2,0.2C857.6,298.3,855.7,297.5,855.7,297z"/>
						<path class="st0" d="M856.5,298.6l-3.2-0.3C856,299.1,856.6,299,856.5,298.6z"/>
						<path class="st0" d="M868.8,304.5c1.8,0,3.5,0,5.3,0c-2.1,0-4.1-0.1-6.2-0.3L868.8,304.5z"/>
						<path class="st0" d="M843.7,293.7l2-0.3c-1.2,0.1-2.4,0.2-3.5,0.3H843.7z"/>
						<path class="st0" d="M835.3,292.1c1.5-0.4-1.8-1.4-0.2-1.5c-1.2-0.2-2.3-0.2-3.4-0.1c-1.1,0.1-2.1,0.2-3,0.3
							C830.7,290.7,832.8,291.1,835.3,292.1z"/>
						<path class="st0" d="M825.5,291.2c1-0.1,2-0.2,3.2-0.4C827.7,290.8,826.6,290.9,825.5,291.2z"/>
						<path class="st0" d="M848,296.6c-0.2-0.3-0.5-0.9-2.3-1.6l1,1.2C847.1,296.4,847.5,296.5,848,296.6z"/>
						<path class="st0" d="M846.8,296.3L846.8,296.3c-1.4-0.4-2.3-0.7-2.7-0.8C844.4,295.6,845.2,295.9,846.8,296.3z"/>
						<path class="st0" d="M848.3,296.7c-0.1,0-0.2-0.1-0.3-0.1C848.1,296.8,848.1,296.8,848.3,296.7z"/>
						<path class="st0" d="M861,301.5c-1.9,0-5.9-0.5-2.4,1.3C860.1,302.5,858.1,301.5,861,301.5z"/>
						<path class="st0" d="M849.5,298.3l3.2,1.1c0-0.3-0.5-0.8,0.5-0.8L849.5,298.3z"/>
						<polygon class="st0" points="847.8,298.1 849.5,298.3 848.3,297.9 						"/>
						<path class="st0" d="M831.7,292.8c-0.8,0.1-1.6,0.1-2.5,0c-0.9,0-1.8-0.1-2.8-0.1c1,0.2,2.1,0.3,3.1,0.5s2,0.4,3,0.5
							C832.9,293.4,833.9,293,831.7,292.8z"/>
						<path class="st0" d="M839.1,294.4c-0.1,0-0.2,0-0.3,0C839,294.5,839.1,294.5,839.1,294.4z"/>
						<path class="st0" d="M808.7,291.1c0.1,0.1,0.2,0.1,0.3,0.2c0-0.1,0-0.1,0.1-0.2H808.7z"/>
						<path class="st0" d="M832.9,293.9c1.5,0.4,2.4,0.4,3.3,0.3c-1.1-0.1-2.3-0.3-3.6-0.5C832.5,293.8,832.4,293.9,832.9,293.9z"/>
						<path class="st0" d="M820.6,291.2c0.7,0.3,1.6,0.5,2.4,0.7C822.4,291.6,820.9,291,820.6,291.2z"/>
						<path class="st0" d="M838.3,294c0.1,0,0.1,0,0.2,0C838.1,293.7,838.2,293.8,838.3,294z"/>
						<path class="st0" d="M838.3,294c-0.8,0-1.4,0.1-2.1,0.1c0.9,0.1,1.8,0.2,2.5,0.2C838.6,294.3,838.4,294.1,838.3,294z"/>
						<path class="st0" d="M802.8,296.5c0.3-0.8,4.2-1.2,7.5,0c3.3-0.3,1.4-3.4-1.2-5.2c-0.1,0.4-0.2,0.7-3.6,0.9
							c1.1,0.6,7.3,1.8,4.4,2.3c-4.5,0-3.6-0.7-5.7-1.3c1.7,1.3-5.8,1-5,2.7l3.9-0.2C803.2,295.9,801.7,296.2,802.8,296.5z"/>
						<path class="st0" d="M815.3,292h1.4c-1.5-0.3-2.6-0.7-4.6-1.6c-2.3,0.2-2.8,0.5-3,0.7l6.7,0.8L815.3,292z"/>
						<path class="st0" d="M822.8,292.5c-1.1,0.9-4.4,1-2.5,2.2c4,0.3,2.8-0.6,5.3-0.8c-6.5-0.3,1.9-0.4-2.8-1.3
							c1.3-0.1,2.4,0,3.6,0c-1.3-0.2-2.3-0.4-3.4-0.7c0.1,0,0.1,0,0.1,0.1l0,0l0,0c0.3,0.1,0.4,0.2,0,0.1H823
							C823.1,292.3,823,292.4,822.8,292.5c-1.8-0.3-0.3-0.3,0.3-0.3l0.1-0.1l0,0c-2.1,0-4.3,0-6.5,0
							C818.1,292.2,819.8,292.4,822.8,292.5z"/>
						<path class="st0" d="M854.7,303.7c-0.2-0.1-0.1-0.2-0.1-0.3C854.1,303.4,853.9,303.5,854.7,303.7z"/>
						<path class="st0" d="M852.3,302.4c0.5,0,1-0.2,2.4,0.3c1.2,0.6-0.1,0.4-0.1,0.7c1,0,3.3,0.3,0.6-1h-0.5
							c-2.4-1-5.4-3.1-4.9-3.1C850.3,300.4,850.8,301.2,852.3,302.4z"/>
						<path class="st0" d="M837.8,296.9c-1.8-0.3-3.7-0.4-5.6-0.6l2.6,1.3l-0.1-0.5C837.9,297.8,837.3,297.2,837.8,296.9z"/>
						<polygon class="st0" points="808.2,290.6 809,289.7 805.7,290.7 						"/>
						<polygon class="st0" points="801.1,290 801.5,289.2 799.5,289.5 						"/>
						<path class="st0" d="M401.4,307.8l-1.6,0.4C400.6,308.1,401.1,308,401.4,307.8z"/>
						<path class="st0" d="M413,306.8l0.2-0.5C412.7,306.6,412.5,306.8,413,306.8z"/>
						<path class="st0" d="M626.5,285.4c-2.4-0.7-5-1.9-4.7-1l0.7,0.9C624.2,285.1,625.5,285.2,626.5,285.4z"/>
						<path class="st0" d="M507.5,295.3c0.2,0.1,0.5,0.2,0.7,0.2c0.5-0.4,1.1-0.7,1.5-1C509,294.7,508.3,295,507.5,295.3z"/>
						<path class="st0" d="M506.1,299.3l-3.1-0.4C503.7,299,504.7,299.1,506.1,299.3z"/>
						<path class="st0" d="M338.4,315l-1.8,1.1C339.5,315.8,338.2,315.5,338.4,315z"/>
						<path class="st0" d="M728.3,283.7c-2.1-0.4-3.7-0.6-5.1-0.7C725.7,283.7,727.7,284.5,728.3,283.7z"/>
						<path class="st0" d="M405.1,297.4c-1,0.3-1.4,0.5-1.3,0.7C404.8,297.8,405.4,297.6,405.1,297.4z"/>
						<path class="st0" d="M717.4,283.1c0.4,0.1,0.7,0.1,1.1,0.2c1.5-0.2,3-0.3,4.8-0.2C721.4,282.6,719.4,282.4,717.4,283.1z"/>
						<path class="st0" d="M110.7,343.4c-0.2,0-0.4,0-0.5,0C110.1,343.5,110.4,343.4,110.7,343.4z"/>
						<path class="st0" d="M43.1,345.2c0.6-0.2,1.7-0.4,2.7-0.5C45.3,344.7,44.4,344.8,43.1,345.2z"/>
						<path class="st0" d="M772.8,286.6C774.3,286.7,773,286.6,772.8,286.6L772.8,286.6z"/>
						<path class="st0" d="M779.7,291.1c-0.3,0.1-0.6,0.2-0.6,0.4C779.2,291.3,779.4,291.2,779.7,291.1z"/>
						<path class="st0" d="M702.4,289.1L702.4,289.1C702.7,289.2,702.6,289.2,702.4,289.1z"/>
						<path class="st0" d="M775,287.3c-0.6-0.2-1.2-0.3-1.9-0.5C773.4,286.9,774,287.1,775,287.3z"/>
						<path class="st0" d="M774.7,286.8c0.5,0.1,0.9,0.2,1.3,0.2C776.2,286.9,776.1,286.8,774.7,286.8z"/>
						<path class="st0" d="M770.7,286.5c0.9,0.1,1.7,0.2,2.4,0.3c-0.3-0.1-0.4-0.2-0.3-0.2C772.3,286.6,771.7,286.5,770.7,286.5z"/>
						<path class="st0" d="M232,322.5c-0.1,0-0.2,0-0.3,0C230.2,323,230.9,322.9,232,322.5z"/>
						<path class="st0" d="M587.6,295.6c0.1,0,0.1,0,0.2,0C587.7,295.6,587.6,295.6,587.6,295.6L587.6,295.6z"/>
						<path class="st0" d="M582.3,296.4c2.2-1.2,3.6-1.2,5.3-0.9c-0.6-0.9-1.2-1.8-1.8-2.7L582.3,296.4z"/>
						<path class="st0" d="M373.8,310.8l3.8,0.5c-4.4,1.8-7.8,1.7-4.1,2.5c0.3-3,14.7-1.7,14.9-4.7l2.5,0.4c-0.7,0-0.8,0.2-1.5,0.3
							c5,0.9,3.4-2.5,9.7-2.7c2.2,0,3.7,0.3,2.3,0.8l4.8-1.2c1.4-0.1,1.1,0.5-0.3,0.5l7.4-1v0.1c1-0.6,3.3-1.5,4.5-1.9
							c1.9,0.2-0.9,0.4-0.4,0.7l4-1.1c1.7,0.6-1.6,1.7-4.4,1.8c4.1,2.6,3.3-1.1,11.7-0.2l-3.8,0.8c1.3,0.7,2.7,0.8,4.3,0.9
							c0.8,0,1.7,0,2.5,0.1c0.9,0.1,1.9,0.1,3,0.3c-0.5-0.2-2.8-0.8-4.2-1.3c-1.6-0.5-2.4-1.2-0.2-1.7c0.6,0.1,1.3,0.1,2.2,0
							c0.9-0.1,1.9-0.3,3.1-0.6c0.1,1,2.4,0.6,5.3,0.4l-0.1,1.4c3.1-0.6,2.8-1.3,4.7-2c3.5-0.1,4.3,0.9,5.2,1.8
							c5.7-0.1-4-1.5,2.7-2.2c4.7,0.2,8-0.5,13.6-1.7c3.3,0.3-0.5,0.9,0.7,1.2l2.9-1.3c0.7,0,0.5,0.3,0.4,0.5c2.4-0.6,0.1-1.4,4-2
							c0.9-1.6,8.1,1.8,12.8-0.3c1.2,0.3-0.5,0.9-0.1,1.4c6.5-1.5,5.6-1.2,10.9-3l4.7,0.6c-3.4-0.8,0.8-2.3,4.5-3.6
							c-1.2-0.4-2.3-0.8-3-1l6-1.1c0.7,0.2,0.2,0.7-0.8,1.3c0.4-0.1,0.8-0.3,1.1-0.4c2.2,0.4,1.1,1.3-0.4,2.1
							c-0.8-0.2-1.5-0.5-2.2-0.7c-1.4,0.9-2.8,1.9-2.4,2.7c0.4-0.2,1.1-0.4,2-0.5c-0.4,0.3-0.6,0.5-0.4,0.6c0.2,0.1,0.8-0.2,1.8-0.6
							l1.5,1.5l0.3-0.6l7.9,0.5c5.6-1.9,10.3-4.5,19.3-5.6c-2.2,1.3-0.4,1.9-0.4,3.2c-2.5-1.3-6.9,1-11.6,1c2.4,0,1.9,0.7,1.3,0.9
							l8.2-1.8c-0.1,1.1,1.8,0.7,4,1.1c-1.8-2.1,6.1-1.8,9.4-2.6c0.2,0.7-0.5,1.5-4.6,1.5c4.6,1.4,5.7-2.9,10.3-1.7
							c-1,0.1-1.6,0-1.9,0.4c2.3-0.8,8.1-0.5,6.8,0.2l-1,0.1c6.7-0.1,20.3-0.9,21.2-2.7c0.1,0.2-0.8,2.3-1.2,2.6
							c3.9-2.2,7.8-4.4,11.8-6.5c-1,1.6,2.9,5.4-2.5,6.3c1.6,0.2,3.4,0.5,6.8-0.1c-1.1-0.2-2.7-2.3-1.2-2.5c4.1,1.8,2.8,1,7.9,2.5
							c-1.6-0.3,0.2-2.8,2.7-2.8c-0.4,0.4,0.2,2.5-0.7,2.7c2.1-0.8,4.3-1.7,6.4-2.5c-1.6,0.5-0.3,2.1,1.2,2.8
							c-0.7-0.5,5.5-0.1,7.3-0.3l-2.7-0.5c7.2,0.2,7.1-3.6,14.2-3.6c-0.9,0.5-2.1,3.2,1.6,3.4c1.6-1.3,7.2-6.2,13.5-7.4l1.2,0.7
							l4.8-1c-3,2-11.4,6.2-16,7.8c2.7,0.5,0.8,0.8,4.8,0.7c1.4,0.6-2.2,1.1-3.4,1.1l9.4,0.2c-0.5-1.5,7.2-1.7,6.8-2.9l-10.2,1.8
							c-0.5-1.4,5.8-4.3,12.5-4.2c1.7,0.5-1.2,2.6-1,3.1c0.9-0.5,6.3-1.1,6.9-0.8l-2.8,0.9c3.7,0.4,6-2.1,10.5-0.8
							c1.5,0.1,4.6,1.8,4.9,0.9c-2.6-1.6-3.2-6.8-1.5-8.1c0.5,0.1,8.1,1.4,9.9,2.2c2.6,1.2-3.7,3.2-1.5,4.3c0.1-0.4,1.5-0.9,2.1-1.1
							c1.6,0.3-0.6,1.3,2.9,1c0.6-1.5,7.2,0,1.6-1.3c3.4-0.5,3.7,0.2,7.7,0.1c-1.3-0.9,3.6-3.3,7-3.8c-0.2,0.4,0.6,0.9,1,1.1
							c7.1,0,10.8,0.7,17.4,0.7c0.6,0.4,3.8,0.8,2.4,1.5c0.9-0.3,1.8-0.7,3.8-0.8c3.9,1.3-4.5,0.1-1.6,1.7c0.1-0.4,1.4-0.7,3.1-0.9
							c1.6-0.2,3.6-0.4,5-0.6c-0.8-1.4-6.6-0.5-9.5,0.1c0-1.8,5.1-3.8,12.1-4.3c5.5-0.1,2.3,1.3,3.3,1.1c10.2,1.1,9-2.5,17.4-0.4
							c3.3,1.5-0.1,2.3,0.6,3.2c-4.5,0-6.7-1.4-9.8-1.6l3.7,0.9c-1.4,0.3-4.4,0.3-6-0.2c2.7,1.2,17.3,1.8,25,3.6
							c1.4-0.2,3.9-0.4,2.8-1l-2.5-0.1c-2.2-1.2,4.8-0.8,1.7-1.6c3.4-0.3,7.3-1,11.9,0.1l0.7,1.4c-0.1-0.4-3-1.1-4.4-0.8
							c2-0.4,7,2.6,9.4,1l-3.2-1.3c3.4-0.3,7.7-1.3,11.8-0.4c-1.8-1.5-1,0.1-3.8-1.8c2.4,2.2-10.7-1.2-6.7,1.2
							c-2.9-2.1-5.2-1.3-9-3.2c0.1,0.5,1.3,1-2.2,0.4c-0.2,0.1-0.6,0.2-0.8,0.3c-0.1,0-0.1,0-0.2-0.1c0.1,0,0.1,0,0.2,0.1
							c-0.2,0-0.2,0.1,0.1,0c0.8,0.3,1.5,0.6,1.7,0.9c-1.8,0.8-7.4,0.2-9.4,0.5c-2.1-0.4,0.9-0.4-0.2-1l-3.2,0.6
							c-0.2-1-5.4-2.2-0.4-2.3l-4.4-0.5c-2.6-0.8-6.1-1.4-8.4-1.2c-2.1-0.4-5.4,0.6-3.5,0c-2.4,0-4.7,0-7,0v-0.2
							c-3.4-0.3-7.1-0.2-10.8-0.1c-1.9,0-3.8,0-5.7-0.1s-3.9-0.4-5.8-0.8c-2.3,0.3-4.7,0.5-8.6,0.3l-0.8-0.8c-3,0.3-9-0.7-10.2,0.2
							c-3.3-2.2-14.4-0.2-19.7-0.5l-0.2,1.1c-3.6,0-7,0.4-11.5,1l0.3,1c-3.8,0.9-9.9-0.4-16-0.2c0.4-0.4,1.9-0.3,3-0.1
							c-7.3-2-15.3,2-21.9,0.6c-1.6,0.4-2.8,0.3-4,0.1c0.2,0,0.3,0,0.4-0.1c-0.2,0-0.4,0-0.7,0c-0.7-0.2-1.5-0.3-2.3-0.5
							c0.7,0.2,1.4,0.4,1.9,0.5c-1.3,0.1-3.2,0.2-5,0.5l-0.8-1c-0.2,0-0.3,0-0.4,0c-1.8-0.3-1.5,0.5-0.5,1.3
							c-0.9,0.2-1.8,0.4-2.5,0.7c-1.5-1.7-4.9,0.7-7-1.1c-1.2,0.9-9.4,0.8-10.4,2.7c-0.1-0.2-0.6-0.4,0.4-0.4
							c-2.1-0.2-4.2-0.4-6,0.1l-0.9-1.3l-4.6,1.8c-2.8-0.8-4-1.3-1.2-2.3c-3.4,0.8-4.8,1-6,1.2s-2.3,0.4-5.2,1.2l0.3-0.9
							c-2,0.1-5.2,1.4-6.5,0.7c-4.6-1.5-22.4,0.8-34.2-0.1c2.4,2.4-5.5-0.8-5.8,1.1c-0.7-0.6-2.3-0.8-0.5-1.4c-5.9,0.9-9-0.5-13,1.4
							c-0.7-0.6,1.2-1,0.6-1.3c-0.5,0.2-1.9,0.6-2.5,0.3c-0.6-0.3,0.8-0.6,1.8-0.9c-6.1,0.4-6.6,2.3-6.9,4.1
							c-3.1-0.6-4.6-0.4-6.8,0.8c-1.1-0.5-2.9-1,0.8-1.4c-2.1,0-13-0.1-13.1,1.3c-0.7-0.3-3,0.1-3.5,0.3c-4.8,0.2-5.2,0.1-9.8,0.5
							l1.3,0.1c-1.7,1.8-3.9,0.6-7.6,1l0.1-0.2c-8.7-0.7-3.7,0.8-12.3,0l0.5,1c-0.7,2.3-7.6-0.8-12.5,0.3l1.8,0.5
							c-2.6,0.9-7.7-2.6-10.5-2.7c-0.6-0.2,0.9-0.4,1.7-0.6c-7.2-0.9-0.8,1.4-6.1,2.1c-1-0.7,1.1-2-2.4-1.9c-0.5-0.1-1.3,0-2.4,0.3
							c-1.2,0.2-2.6,0.7-4,1c-2.9,0.8-6.2,1.5-8.7,1c1.1,0.5,2.2,0.9-0.2,1.6c-3.7,0.6-10.3-1.2-13.6,1c-0.5-0.1-0.7-0.2-0.7-0.4
							c-2.8,0.7-9.2,1.7-10.9,2.8c-3-3.3-17.7,3.5-17.9,0.2l-8.8,1l0.2-0.4c-5.7,0.3-7.6,1.3-9.5,2.3c-1.3-0.1-0.4-0.5-0.3-0.7
							c-8.3,0.1-9.1,0.4-15.9,2.7l-0.8-1c-1.8,0.8-12-0.5-20,1.5c0.1-0.1,0.2-0.4,0.8-0.6c-9,2.1-22-0.9-25,3.4l-5.9,1.5
							c7.8-0.5-1,1.8,2.2,2.2c-3,0.5-8-0.4-4.3-1l0.6,0.1c1.2-2.2-9.7,0.2-9.6-1.2c-15.2,1.6-30.4,1.9-44.7,3.6l1.8,1.4
							c-1.7,0.2-3.3,0.3-5,0.5c-1.4-0.2-1.9-1,1.6-1.4c-2-0.6-5.9,1.5-5.9,1.9c-7,0.3,2.5-2.2,0.3-2l-2.9,0.5l0.7,0.1
							c-2.3,1-2.4,1.7-6.7,2.2c-2.7,0-1.5-0.8-2.6-0.7c0-0.1-0.4-0.1-1.6,0.2l-6.3,0.7l2.7,0.9c-2.7,1-5.9,0.8-2.8,1.8
							c-2.3-0.8-8.1-0.2-13.8,0.6c-5.6,0.8-11,1.8-12.4,1.7c-3.7,1.5-7.6,2-12.3,2.7c1.2,0.1,2.1,1.4-2,1.8
							c1.1-3.1-7.7-0.1-11.3-1.7c3.2,0.9-11.6,2.2-6.6,3.4c-3.4,0.3-0.4-1-3.1-1.3c-7.9,2.4-18,2.1-28,4.1c-0.1,0.4,1.7,0.7-0.4,1.6
							l-5.6-1c-1.9,0.5-1.5,2.5-5.3,1.8c0.6,0.2,1.4,0.6,0.1,0.9c-19.9,1.4-39.8,8.2-60.3,8.3c2.8,0.3,1,0.6-1,1
							c1.4-0.1,0.1,0.9,0.5,1.4h-8.6c-1.3,1.7-8.9,1.7-9.5,3.2l2.6-0.7c-3.2,2.2,5.5,2.7,5.4,4.8c3.6-2.5,10.8,0.9,16.8-2.9
							c1.5,0.2-1.1,0.9-0.3,1.2c1.5-1.2,3.4-1.7,7.1-1.9l-0.4,0.3c10.2-2,14.8-1.9,26.4-3.3l-1-0.9c2.5-0.3,3.1-0.1,4.3,0
							c2.6-2-7,1.1-4.7-1.1c3.6,1.5,17.5-2.9,20.1-0.9c3.8-0.6-1.3-1,2.5-1.6l1.1,0.5l0.8-1c2.5-0.3,3.9,0.3,4.1,0.8
							c-0.6,0-1.7,0.4-2.3,0.6c3.4,0.2,9.1-1.8,10.3-1.7l-3.7,0.2c10.3-2.3,23.2-3.5,33-6.4l-0.8-0.4c7.5-2.1,6.2-0.5,14.6-2.2
							l-0.3,0.2c1.6-0.7,3.8-1.3,6.2-1.6c-2,0.9,4.2,0.5,1.5,1.5c8.2-2.2,4-1.4,9.3-4l1.4,0.6c1.8-1,1.9-1.4,6.1-2.2
							c-3.4,1.2,2.9,0.8-0.9,2.3c9.1,0.4,12.9-3.7,17.3-1.7c3.8-2.8-7.8-0.1-5.6-0.9c-2-0.5,3.1-2.1,5.9-2.3
							c2.8-0.3,5.2,2.1,12.3,1.1c-0.7,0.1-0.7,0.3-1.4,0.3c2.7,0.2,5.1-1.5,8.5-1c1.7-1.6,4.3-0.5,4.6-2.3l-6.5,1.3
							c3.6-0.9,6.9-3.4,13.1-3.2c-0.4,0.4-2.2,1.1-3.4,1.5c1.8,0.3,3.4-0.8,5.3-0.5c-0.3,1.7-7.9,1.4-11.7,3.2
							c2,0.5,7.3-2.2,5.6-0.1c2.6-2.8,7.1-0.6,11.7-3l-0.2,1.1c0.7-0.3,2.3-0.9,3.7-1.1l-2.4,1.6c1.9-0.8,3.8-0.8,5.7-0.7
							c1.9,0.1,3.8,0.3,5.6-0.2c-7.8,0.8-1.9-1.1-5.3-1.5c9.5-2.4,5.8,2.1,16.6,0.5c-1.5,0.3-5.6-0.1-3.3-0.8c2.1,0,4.9,0.1,6.2,0.6
							c7.2-0.9-1.2-1,1.8-1.9c2.6,1,3.5-0.9,6.6-1.6l0.1,1c8.3-0.1,2-2.4,9.5-2.3l-3,1.8l3.8-0.8l-0.7,1.3c4.1-1.3,5.5-1.2,9.6-1.3
							c-1-0.6,0.4-2,4-2.3c2.5,0.4-1.3,1.1,3.8,0.5c-1.1,0.8-2.3,1.7-4.6,1c-0.2,0.4-1.1,0.8-1.3,1.1c2.7,0.5,6.7-0.5,8.6-0.7
							c-0.7,0-1.6,0.1-2,0l7.4-2.2c1.2,0.3,0.3,0.7-0.6,1.1c1.5-0.3,2.5-0.8,4.7-1.2c-0.5,0.9-0.3,1.8-3.4,2.5l7.1-1.6
							c0.5,0.3,3.8,0.7,2.9,1.1c4,0.1,9.6-2.6,14.9-2.4c0.3-0.2,0.8-0.4,1.9-0.6c4.9-0.3,9.4,0.3,15.1-1.4l3.4,1.2
							c4.5-0.8-4.7-1.5,2.9-2.8c5.4-1,2.1,1.1,4.1,1.3c2.6-1,7.1-3.1,12.2-2.3C376.6,310.6,375.3,310.5,373.8,310.8z M430.2,304.6
							c-1.1,0.3-3.2,1.2-4,0.7C427.3,304,428.3,304.5,430.2,304.6z M515.9,296.8c-0.8,0.4-2.1,0.3-3.5,0
							C513.5,296.6,514.6,296.6,515.9,296.8z M756.2,285.8L756.2,285.8C753.7,285.2,754.6,285.5,756.2,285.8z M761.3,286.8
							c0.5-0.1,0.5-0.2,0.3-0.4c-0.4,0.2-1.5,0.1-2.8-0.1C759.1,286.6,759.7,286.9,761.3,286.8z M215.2,317.6l1,0.1
							C214,318.3,214.6,318,215.2,317.6z"/>
						<path class="st0" d="M506.3,298.8c-0.3-0.2-0.4-0.3-0.5-0.5C505.3,298.4,505.3,298.7,506.3,298.8z"/>
						<path class="st0" d="M338.7,314.8h-0.2c-0.1,0.1-0.1,0.1-0.2,0.2L338.7,314.8z"/>
						<path class="st0" d="M682.2,293.6c-1-0.1-1.6-0.3-2-0.5C680.1,293.4,680.6,293.6,682.2,293.6z"/>
						<path class="st0" d="M788.3,287.8l-3.3-0.1c1.6,0.1,2.1,0.4,2.9,0.6C787.9,288.1,787.3,287.7,788.3,287.8z"/>
						<path class="st0" d="M815.8,297.1c0.5-0.1,1,0.1,1.5,0l-0.1-0.5C815.2,296.4,813.7,296.7,815.8,297.1z"/>
						<path class="st0" d="M791,291.6c0.2,0.9,2.2,0.8,4.5,0.9c-0.1,0-0.3,0-0.4,0C795.9,291.3,793.4,291.4,791,291.6z"/>
						<path class="st0" d="M796,292.5c0.7,0,1.4,0.1,2.1,0.2C798.4,292.2,797.3,292.5,796,292.5z"/>
						<path class="st0" d="M767.8,286.8c1.1,0.3,0.8-1.1,1.4-0.6C770.5,285.2,761.8,286.8,767.8,286.8z"/>
						<polygon class="st0" points="792.5,294.7 791.8,293.5 790.4,294.2 						"/>
						<path class="st0" d="M774.6,292l3.6,0.7c0-0.2,0.4-0.2,1-0.3C777,292.1,774.6,291.7,774.6,292z"/>
						<path class="st0" d="M779.3,292.4c1.2,0.1,2.3,0.2,2.9,0.1C781.6,292.5,780.2,292.4,779.3,292.4z"/>
						<polygon class="st0" points="787.5,294.5 786.5,294.1 783.9,293.8 						"/>
						<path class="st0" d="M735.6,288.2c-1.3,0-2.7,0-4,0.1c-0.4,0.4,0.7,0.6,2.1,0.5C734.7,288.6,736.1,288.6,735.6,288.2z"/>
						<path class="st0" d="M747.3,292.1c-1.1-0.3-1.1-0.6-1.7-1l-0.2,1.3L747.3,292.1z"/>
						<path class="st0" d="M735.8,291.5c-0.4,0.4-5.8,0.7-0.8,0.9C735.4,292.1,739.4,292,735.8,291.5z"/>
						<polygon class="st0" points="675.9,290 677,290 676.8,287.8 						"/>
						<path class="st0" d="M623.2,296.8c4.7,0.4,1.1-1.4,5.4-0.8c1.1-0.6-3.5-0.5-2.4-0.9C623.4,295.6,621.9,295.3,623.2,296.8z"/>
						<path class="st0" d="M626.2,295c0.5-0.1,0.9-0.2,1.4-0.4C626.8,294.8,626.4,294.9,626.2,295z"/>
						<polygon class="st0" points="31.9,346 28.8,346.1 30.9,346.4 						"/>
						<path class="st0" d="M26.4,348.6l-1-1.3l-1.6,1.6C24.6,348.8,25.9,348.4,26.4,348.6z"/>
						<path class="st0" d="M438.7,306.9l0.2-0.4c-0.5-0.3-1.2-0.3-2.6-0.3L438.7,306.9z"/>
						<polygon class="st0" points="397.7,309.6 398.4,309.6 397,308.4 						"/>
						<path class="st0" d="M363.5,314.6c1.4-0.1,3-0.5,4.4-0.6C364.9,314.5,363,313,363.5,314.6z"/>
					</g>
				</g>
			</g>
		</g>
	</g>
</g>
<g id="Layer_2_1_">
</g>
</svg>
